# xmcd
#
# Track frame offsets: 
#        182
#        9800
#        20697
#        31052
#        42712
#        54497
#        65530
#        74705
#        81842
#        90917
#        103902
#        113152
#        124487
#        135762
#        145575
#
# Disc length: 2072 seconds
#
# Revision: 1
# Processed by: cddbd v1.5.2PL0 Copyright (c) Steve Scherf et al.
# Submitted via: ExactAudioCopyFreeDBPlugin 1.0
#
DISCID=c808160f
DTITLE=Conway Twitty - The Road That I Walk
DYEAR=1995
DGENRE=Country
TTITLE0=Ever Since You Went Away
TTITLE1=Big Town
TTITLE2=Let Me Be The Judge
TTITLE3=You Made Me What I Am Today
TTITLE4=Sitting In A Dim Cafe
TTITLE5=Have I Been Away Too Long
TTITLE6=Wonder If You Told Her About Me
TTITLE7=Treat Me Mean, Treat Me Cruel
TTITLE8=The Road That I Walk
TTITLE9=Reputation
TTITLE10=Don't Go To Far
TTITLE11=Broken Heart
TTITLE12=Angel's Wing
TTITLE13=Riskin' One
TTITLE14=Where I Stand
EXTD=ID3G: 2
EXTT0=
EXTT1=
EXTT2=
EXTT3=
EXTT4=
EXTT5=
EXTT6=
EXTT7=
EXTT8=
EXTT9=
EXTT10=
EXTT11=
EXTT12=
EXTT13=
EXTT14=
PLAYORDER=
